Coordinates
version=1
nRows=14
nColumns=36
inDegrees=yes

Units are S.I. units (second, meters, Newtons, ...)
If the header above contains a line with 'inDegrees', this indicates whether rotational values are in degrees (yes) or radians (no).

endheader
time	pelvis_tilt	pelvis_list	pelvis_rotation	pelvis_tx	pelvis_ty	pelvis_tz	hip_flexion_r	hip_adduction_r	hip_rotation_r	knee_angle_r	knee_angle_r_beta	ankle_angle_r	subtalar_angle_r	mtp_angle_r	hip_flexion_l	hip_adduction_l	hip_rotation_l	knee_angle_l	knee_angle_l_beta	ankle_angle_l	subtalar_angle_l	mtp_angle_l	lumbar_extension	lumbar_bending	lumbar_rotation	arm_flex_r	arm_add_r	arm_rot_r	elbow_flex_r	pro_sup_r	arm_flex_l	arm_add_l	arm_rot_l	elbow_flex_l	pro_sup_l
      0.00000000	      4.13010854	     -2.46487355	     -6.67012780	      0.84819138	      0.97018570	     -0.57110379	     26.77321173	     -0.15883897	      3.45418621	      6.98771604	      0.12195865	     -7.44252859	    -15.53783676	     -6.99114685	     -8.29773094	      3.61147943	      2.70120463	      5.50170289	      0.09602283	     17.38155493	      0.96090958	     -6.99114685	     -5.92176895	     -0.92309997	      0.02723110	     25.25036441	     -6.14584820	     69.94704909	    132.86988844	     87.33973045	     25.58805215	     -6.13216428	     45.61189232	    119.81020560	     94.22422300
      0.01666670	      3.87726700	     -2.34513051	     -5.95204972	      0.85354294	      0.96559714	     -0.56434337	     26.27828099	     -0.25912331	      1.58311985	      3.12674086	      0.05457192	     -2.98791735	     -5.34717296	     -7.07557040	     -7.32058563	      3.48900574	      2.87379769	      8.03116774	      0.14017032	     16.76467587	     -0.87461695	     -7.07557040	     -5.17133846	     -1.33654424	      0.32352808	     29.60133012	     -6.74232441	     80.29234846	    136.24815452	    103.66378544	     27.69037749	     -8.43628489	     45.32484042	    123.93219631	    104.92838296
      0.03333330	      2.63075643	     -1.68438365	     -5.77733736	      0.85451189	      0.96201023	     -0.56189503	     27.23031923	     -0.51343833	      0.33394100	      1.30042931	      0.02269677	     -0.96271838	     -2.14343021	     -7.13417121	     -4.61291554	      3.96468633	      0.99561491	     10.56035515	      0.18431297	     17.74001960	     -1.75861738	     -7.13417121	     -2.72460484	     -1.98775034	     -0.32256117	     29.37227117	     -4.37486246	     79.30404080	    135.76563486	    102.28918056	     27.71205610	    -10.44699570	     46.34061192	    125.50307722	    103.50912948
      0.05000000	      3.95046742	     -2.43728398	     -5.25896211	      0.85261920	      0.96281969	     -0.56303907	     25.81621412	     -0.08286520	     -2.01308990	      1.63623354	      0.02855766	      0.93758469	      0.27797384	     -7.25494749	     -5.46799455	      3.31083198	      0.57108005	     11.52378385	      0.20112797	     19.55644816	     -0.72901331	     -7.25494749	     -3.84393029	     -1.10063078	     -1.65816977	     30.91059928	     -3.00177558	     78.35515623	    134.91006117	    104.43737819	     28.12847143	    -10.95061044	     45.31524380	    125.93531245	    105.67291074
      0.06666670	      5.33690344	     -2.95396489	     -5.19681081	      0.84389303	      0.96469925	     -0.56024363	     25.08220226	      0.39424611	     -3.40474839	      2.98515253	      0.05210074	      0.80432065	      1.37422922	     -7.26088052	     -6.37378538	      2.98565170	      0.30500976	     11.99543992	      0.20935992	     20.30425938	     -1.12085380	     -7.26088052	     -5.69599251	     -0.69643783	     -1.78685939	     32.03195504	     -2.28972529	     77.00911419	    134.03554023	    104.23932171	     29.50349588	    -11.29633014	     45.49648743	    126.37390524	    105.50384962
      0.08333330	      6.58890069	     -3.16252267	     -5.14734489	      0.83776515	      0.96635133	     -0.56508145	     24.83446688	      0.37240945	     -4.53489978	      4.75898872	      0.08306002	     -0.26852960	      1.78518444	     -7.26653721	     -7.22771466	      3.01212658	      0.30326467	     12.38636454	      0.21618284	     20.46695110	     -1.60871932	     -7.26653721	     -7.67920493	     -0.51503644	     -1.88035137	     33.38956536	     -1.83083268	     76.40216195	    133.73489416	    103.84667860	     31.24331810	    -11.43139422	     45.45365210	    126.64930989	    105.17081681
      0.10000000	      7.63857098	     -3.38415216	     -5.32639261	      0.84123972	      0.96816106	     -0.56060591	     24.43158307	      0.57763306	     -5.01789539	      5.79429560	      0.10112954	     -1.51350341	      1.71189869	     -7.31724525	     -8.32100076	      2.97258983	      0.28248553	     12.43687813	      0.21706447	     20.09767893	     -1.89823631	     -7.31724525	     -9.16829374	     -0.29722915	     -1.77025521	     34.14817053	     -1.32835725	     76.20243635	    133.38704640	    100.03038093	     32.35014871	    -11.63439029	     45.32881822	    126.71183637	    102.15268720
      0.11666670	      8.32193397	     -3.38105293	     -5.60340349	      0.83995050	      0.96885370	     -0.56038485	     24.44919270	      0.60130722	     -4.90327133	      6.81024846	      0.11886126	     -2.80911182	      1.37352328	     -7.37821459	     -8.91207357	      3.10246881	      0.11745147	     12.63502172	      0.22052273	     19.98003539	     -1.96368915	     -7.37821459	    -10.13816378	     -0.29357492	     -1.54740500	     34.64841431	     -1.00892280	     75.72653446	    133.15128461	     98.18363078	     33.08079382	    -11.88771720	     45.17700160	    126.82553787	    100.44501704
      0.13333330	      8.62365003	     -3.27238786	     -5.79329269	      0.83949834	      0.96914935	     -0.56024447	     24.68755187	      0.51161635	     -4.76815859	      7.47672364	      0.13049344	     -3.88189556	      1.32199858	     -7.38804622	     -9.19559303	      3.31736039	      0.20073573	     12.71179530	      0.22186268	     19.73102213	     -2.23448071	     -7.38804622	    -10.55197244	     -0.38218088	     -1.20285485	     34.69364698	     -0.77327673	     75.28645798	    133.17492273	     96.80391097	     33.62147012	    -11.91588557	     45.23115379	    126.86109379	     99.17971708
      0.15000000	      9.07681983	     -3.19990734	     -5.98454460	      0.83857828	      0.96946295	     -0.56015800	     24.63085316	      0.48014607	     -4.32278416	      7.94555553	      0.13867610	     -4.79878994	      1.04509056	     -7.39726256	     -9.62954064	      3.48235739	      0.03707648	     12.77060190	      0.22288905	     19.74229787	     -2.21968261	     -7.39726256	    -11.02385085	     -0.43796179	     -0.91838843	     34.91324608	     -0.59911529	     75.04653350	    132.97225027	     95.54487455	     34.16618194	    -11.89829339	     45.13158888	    126.73185095	     97.94464536
      0.16666670	      9.26612100	     -3.09142232	     -6.13104839	      0.83836288	      0.96977498	     -0.56012761	     24.80706060	      0.40570647	     -3.84403517	      8.51065549	      0.14853896	     -5.38517277	      0.92238916	     -7.40461573	     -9.68494009	      3.64498885	     -0.13547957	     12.91718624	      0.22544743	     19.72521899	     -2.28185088	     -7.40461573	    -11.24549884	     -0.47344382	     -0.63976067	     34.98977344	     -0.65485500	     74.55314206	    133.02293225	     94.44730476	     34.46212755	    -11.90485697	     45.09326042	    126.86524266	     96.96654143
      0.18333330	      9.61117584	     -3.08564109	     -6.20463357	      0.83767680	      0.97007277	     -0.56016185	     24.72531667	      0.44719634	     -3.35431585	      8.86056313	      0.15464600	     -5.88097398	      0.67972742	     -7.41392575	     -9.94766175	      3.66363389	     -0.47057587	     12.99334916	      0.22677672	     19.84846204	     -1.91242178	     -7.41392575	    -11.63822573	     -0.40512876	     -0.42309252	     35.25117769	     -0.68381154	     74.17340758	    132.90411064	     93.61013315	     34.78706792	    -11.93489262	     45.14895171	    126.69686374	     96.15350202
      0.20000000	      9.79989732	     -2.99131993	     -6.29751146	      0.83015585	      0.97020529	     -0.55697327	     24.93781090	      0.43120146	     -3.13974874	      9.26788105	      0.16175504	     -6.18830703	      0.78626834	     -7.41464780	     -9.83191425	      3.71528811	     -0.80843251	     13.22775403	      0.23086786	     19.76462419	     -1.97744820	     -7.41464780	    -12.05489926	     -0.52195745	     -0.22556446	     35.72249137	     -0.50242017	     73.78792843	    132.58993758	     93.62672252	     35.25560959	    -11.97734097	     45.26796755	    126.86111447	     96.19840743
      0.21666670	     10.04489301	     -2.84131103	     -6.33634862	      0.82961120	      0.97023543	     -0.55688710	     25.03124204	      0.36296263	     -2.83507688	      9.65320126	      0.16848015	     -6.42552985	      0.65015070	     -7.42208103	     -9.77210682	      3.81086074	     -1.24017401	     13.45985707	      0.23491882	     19.52103824	     -2.10007804	     -7.42208103	    -12.59933285	     -0.75892388	      0.04381248	     36.26692616	     -0.41967631	     73.80233414	    132.49852881	     92.67100071	     36.12375397	    -12.11902672	     46.12505436	    126.98700603	     95.32011010
